<svg xmlns="http://www.w3.org/2000/svg" viewBox="0 0 680 460" width="680" height="460">
<title>Top Car Wash - Nogent-sur-Marne</title>
<g fill="#0047AB" transform="translate(-25,0)">
<circle cx="235" cy="120" r="76"></circle><circle cx="340" cy="82" r="80"></circle><circle cx="450" cy="82" r="76"></circle>
<circle cx="548" cy="122" r="68"></circle><circle cx="165" cy="178" r="58"></circle><circle cx="132" cy="136" r="42"></circle>
<circle cx="590" cy="178" r="54"></circle><circle cx="278" cy="168" r="62"></circle><circle cx="392" cy="150" r="64"></circle>
<circle cx="498" cy="150" r="62"></circle><circle cx="210" cy="218" r="52"></circle><circle cx="320" cy="232" r="50"></circle>
<circle cx="432" cy="230" r="52"></circle><circle cx="375" cy="238" r="48"></circle><circle cx="538" cy="218" r="48"></circle>
<circle cx="114" cy="84" r="16"></circle><circle cx="150" cy="50" r="11"></circle><circle cx="602" cy="78" r="15"></circle>
<circle cx="634" cy="118" r="9"></circle><circle cx="92" cy="190" r="13"></circle><circle cx="624" cy="210" r="11"></circle>
</g>
<ellipse cx="340" cy="254" rx="150" ry="9" fill="#000000"></ellipse>
<g fill="#000000" transform="translate(4.84,7) scale(0.98)">
<path d="M152,206 L152,180 C152,168 158,159 170,156 L254,148 L260,143 C268,132 282,120 300,112 C309,108 317,105 326,104 L400,101 C415,101 427,105 437,114 L474,132 L498,146 C511,154 520,164 525,175 C530,186 532,196 532,206 L503.5,206 A38,38 0 0 0 428.5,206 L261.5,206 A38,38 0 0 0 186.5,206 Z"></path>
<path d="M264,141 L246,146 C242,147 241,151 243,154 L249,156 L266,152 Z"></path>
<circle cx="224" cy="212" r="38"></circle>
<circle cx="466" cy="212" r="38"></circle>
</g>
<g fill="#0047AB">
<path transform="translate(76.01,368.00) scale(0.032227,-0.032227)" d="M773 1181V0H478V1181H23V1409H1229V1181Z"></path>
<path transform="translate(117.33,368.00) scale(0.032227,-0.032227)" d="M1507 711Q1507 491 1420.0 324.0Q1333 157 1171.0 68.5Q1009 -20 793 -20Q461 -20 272.5 175.5Q84 371 84 711Q84 1050 272.0 1240.0Q460 1430 795 1430Q1130 1430 1318.5 1238.0Q1507 1046 1507 711ZM1206 711Q1206 939 1098.0 1068.5Q990 1198 795 1198Q597 1198 489.0 1069.5Q381 941 381 711Q381 479 491.5 345.5Q602 212 793 212Q991 212 1098.5 342.0Q1206 472 1206 711Z"></path>
<path transform="translate(169.66,368.00) scale(0.032227,-0.032227)" d="M1296 963Q1296 827 1234.0 720.0Q1172 613 1056.5 554.5Q941 496 782 496H432V0H137V1409H770Q1023 1409 1159.5 1292.5Q1296 1176 1296 963ZM999 958Q999 1180 737 1180H432V723H745Q867 723 933.0 783.5Q999 844 999 958Z"></path>
<path transform="translate(234.02,368.00) scale(0.032227,-0.032227)" d="M795 212Q1062 212 1166 480L1423 383Q1340 179 1179.5 79.5Q1019 -20 795 -20Q455 -20 269.5 172.5Q84 365 84 711Q84 1058 263.0 1244.0Q442 1430 782 1430Q1030 1430 1186.0 1330.5Q1342 1231 1405 1038L1145 967Q1112 1073 1015.5 1135.5Q919 1198 788 1198Q588 1198 484.5 1074.0Q381 950 381 711Q381 468 487.5 340.0Q594 212 795 212Z"></path>
<path transform="translate(282.68,368.00) scale(0.032227,-0.032227)" d="M1133 0 1008 360H471L346 0H51L565 1409H913L1425 0ZM739 1192 733 1170Q723 1134 709.0 1088.0Q695 1042 537 582H942L803 987L760 1123Z"></path>
<path transform="translate(331.35,368.00) scale(0.032227,-0.032227)" d="M1105 0 778 535H432V0H137V1409H841Q1093 1409 1230.0 1300.5Q1367 1192 1367 989Q1367 841 1283.0 733.5Q1199 626 1056 592L1437 0ZM1070 977Q1070 1180 810 1180H432V764H818Q942 764 1006.0 820.0Q1070 876 1070 977Z"></path>
<path transform="translate(399.35,368.00) scale(0.032227,-0.032227)" d="M1567 0H1217L1026 815Q991 959 967 1116Q943 985 928.0 916.5Q913 848 715 0H365L2 1409H301L505 499L551 279Q579 418 605.5 544.5Q632 671 805 1409H1135L1313 659Q1334 575 1384 279L1409 395L1462 625L1632 1409H1931Z"></path>
<path transform="translate(462.64,368.00) scale(0.032227,-0.032227)" d="M1133 0 1008 360H471L346 0H51L565 1409H913L1425 0ZM739 1192 733 1170Q723 1134 709.0 1088.0Q695 1042 537 582H942L803 987L760 1123Z"></path>
<path transform="translate(511.30,368.00) scale(0.032227,-0.032227)" d="M1286 406Q1286 199 1132.5 89.5Q979 -20 682 -20Q411 -20 257.0 76.0Q103 172 59 367L344 414Q373 302 457.0 251.5Q541 201 690 201Q999 201 999 389Q999 449 963.5 488.0Q928 527 863.5 553.0Q799 579 616 616Q458 653 396.0 675.5Q334 698 284.0 728.5Q234 759 199.0 802.0Q164 845 144.5 903.0Q125 961 125 1036Q125 1227 268.5 1328.5Q412 1430 686 1430Q948 1430 1079.5 1348.0Q1211 1266 1249 1077L963 1038Q941 1129 873.5 1175.0Q806 1221 680 1221Q412 1221 412 1053Q412 998 440.5 963.0Q469 928 525.0 903.5Q581 879 752 842Q955 799 1042.5 762.5Q1130 726 1181.0 677.5Q1232 629 1259.0 561.5Q1286 494 1286 406Z"></path>
<path transform="translate(556.33,368.00) scale(0.032227,-0.032227)" d="M1046 0V604H432V0H137V1409H432V848H1046V1409H1341V0Z"></path>
</g>
<g fill="#3D7BD9">
<path transform="translate(195.28,408.00) scale(0.009766,-0.009766)" d="M995 0 381 1085Q399 927 399 831V0H137V1409H474L1097 315Q1079 466 1079 590V1409H1341V0Z"></path>
<path transform="translate(214.73,408.00) scale(0.009766,-0.009766)" d="M1507 711Q1507 491 1420.0 324.0Q1333 157 1171.0 68.5Q1009 -20 793 -20Q461 -20 272.5 175.5Q84 371 84 711Q84 1050 272.0 1240.0Q460 1430 795 1430Q1130 1430 1318.5 1238.0Q1507 1046 1507 711ZM1206 711Q1206 939 1098.0 1068.5Q990 1198 795 1198Q597 1198 489.0 1069.5Q381 941 381 711Q381 479 491.5 345.5Q602 212 793 212Q991 212 1098.5 342.0Q1206 472 1206 711Z"></path>
<path transform="translate(235.28,408.00) scale(0.009766,-0.009766)" d="M806 211Q921 211 1029.0 244.5Q1137 278 1196 330V525H852V743H1466V225Q1354 110 1174.5 45.0Q995 -20 798 -20Q454 -20 269.0 170.5Q84 361 84 711Q84 1059 270.0 1244.5Q456 1430 805 1430Q1301 1430 1436 1063L1164 981Q1120 1088 1026.0 1143.0Q932 1198 805 1198Q597 1198 489.0 1072.0Q381 946 381 711Q381 472 492.5 341.5Q604 211 806 211Z"></path>
<path transform="translate(255.84,408.00) scale(0.009766,-0.009766)" d="M137 0V1409H1245V1181H432V827H1184V599H432V228H1286V0Z"></path>
<path transform="translate(274.18,408.00) scale(0.009766,-0.009766)" d="M995 0 381 1085Q399 927 399 831V0H137V1409H474L1097 315Q1079 466 1079 590V1409H1341V0Z"></path>
<path transform="translate(293.62,408.00) scale(0.009766,-0.009766)" d="M773 1181V0H478V1181H23V1409H1229V1181Z"></path>
<path transform="translate(310.84,408.00) scale(0.009766,-0.009766)" d="M80 409V653H600V409Z"></path>
<path transform="translate(322.50,408.00) scale(0.009766,-0.009766)" d="M1286 406Q1286 199 1132.5 89.5Q979 -20 682 -20Q411 -20 257.0 76.0Q103 172 59 367L344 414Q373 302 457.0 251.5Q541 201 690 201Q999 201 999 389Q999 449 963.5 488.0Q928 527 863.5 553.0Q799 579 616 616Q458 653 396.0 675.5Q334 698 284.0 728.5Q234 759 199.0 802.0Q164 845 144.5 903.0Q125 961 125 1036Q125 1227 268.5 1328.5Q412 1430 686 1430Q948 1430 1079.5 1348.0Q1211 1266 1249 1077L963 1038Q941 1129 873.5 1175.0Q806 1221 680 1221Q412 1221 412 1053Q412 998 440.5 963.0Q469 928 525.0 903.5Q581 879 752 842Q955 799 1042.5 762.5Q1130 726 1181.0 677.5Q1232 629 1259.0 561.5Q1286 494 1286 406Z"></path>
<path transform="translate(340.84,408.00) scale(0.009766,-0.009766)" d="M723 -20Q432 -20 277.5 122.0Q123 264 123 528V1409H418V551Q418 384 497.5 297.5Q577 211 731 211Q889 211 974.0 301.5Q1059 392 1059 561V1409H1354V543Q1354 275 1188.5 127.5Q1023 -20 723 -20Z"></path>
<path transform="translate(360.28,408.00) scale(0.009766,-0.009766)" d="M1105 0 778 535H432V0H137V1409H841Q1093 1409 1230.0 1300.5Q1367 1192 1367 989Q1367 841 1283.0 733.5Q1199 626 1056 592L1437 0ZM1070 977Q1070 1180 810 1180H432V764H818Q942 764 1006.0 820.0Q1070 876 1070 977Z"></path>
<path transform="translate(379.73,408.00) scale(0.009766,-0.009766)" d="M80 409V653H600V409Z"></path>
<path transform="translate(391.39,408.00) scale(0.009766,-0.009766)" d="M1307 0V854Q1307 883 1307.5 912.0Q1308 941 1317 1161Q1246 892 1212 786L958 0H748L494 786L387 1161Q399 929 399 854V0H137V1409H532L784 621L806 545L854 356L917 582L1176 1409H1569V0Z"></path>
<path transform="translate(413.05,408.00) scale(0.009766,-0.009766)" d="M1133 0 1008 360H471L346 0H51L565 1409H913L1425 0ZM739 1192 733 1170Q723 1134 709.0 1088.0Q695 1042 537 582H942L803 987L760 1123Z"></path>
<path transform="translate(432.49,408.00) scale(0.009766,-0.009766)" d="M1105 0 778 535H432V0H137V1409H841Q1093 1409 1230.0 1300.5Q1367 1192 1367 989Q1367 841 1283.0 733.5Q1199 626 1056 592L1437 0ZM1070 977Q1070 1180 810 1180H432V764H818Q942 764 1006.0 820.0Q1070 876 1070 977Z"></path>
<path transform="translate(451.93,408.00) scale(0.009766,-0.009766)" d="M995 0 381 1085Q399 927 399 831V0H137V1409H474L1097 315Q1079 466 1079 590V1409H1341V0Z"></path>
<path transform="translate(471.38,408.00) scale(0.009766,-0.009766)" d="M137 0V1409H1245V1181H432V827H1184V599H432V228H1286V0Z"></path>
</g>
</svg>